<svg id="Layer_1" data-name="Layer 1" xmlns="http://www.w3.org/2000/svg" viewBox="0 0 351 68"><defs><style>.cls-1{fill:#81817f;}</style></defs><title>Untitled-1-01</title><path class="cls-1" d="M22.13,34.79A7.37,7.37,0,0,0,19.31,30a1.09,1.09,0,1,0,.15,1.54A1.09,1.09,0,0,0,19.31,30a4.68,4.68,0,0,0-2.08-1.41,1.27,1.27,0,1,0,1,1.5,1.27,1.27,0,0,0-1-1.5,4.88,4.88,0,0,0-3.33.44,1.45,1.45,0,1,0,2,.37,1.45,1.45,0,0,0-2-.37,9.68,9.68,0,0,0-2.1,5.07,18.29,18.29,0,0,0-.15,3.72,9.49,9.49,0,0,0,.54,3.35,5.45,5.45,0,0,0,3.33,2.24,6.22,6.22,0,0,0,4.57-2.33,20.52,20.52,0,0,0,2.86-4.68,18.36,18.36,0,0,0,1.48-5.74c.13-1.2.2-2.46.23-3.61,0-.88,0-1.68,0-2.3.06-.8.11-1.53.14-1.85a1,1,0,1,0-1,1,1,1,0,0,0,1-1c-2.11.09-2.26.69-2.43,1.41-.51,2.69-1.87,9.15-.58,13.07a7.11,7.11,0,0,0,5.08,4.29,9.79,9.79,0,0,0,5.54-1.77c2.54-1.87,4.3-4.78,4.3-7.11A5.19,5.19,0,0,0,36,30.49a4.78,4.78,0,0,0-2.94-1.66,3.41,3.41,0,0,0-2,.74A4.87,4.87,0,0,0,30,31.15a8,8,0,0,0-.39,4.15,8.71,8.71,0,0,0,5.79,5.64,7.63,7.63,0,0,0,4.46-.47,7.69,7.69,0,0,0,3.29-3.52,12.84,12.84,0,0,1,.78-1.71c.22-.28.26-.33.43-.28,0,0,0,.06.29.4a10.22,10.22,0,0,1,1,1.45c.36.67.82,1.49,1.26,2.19a8.12,8.12,0,0,0,2.26,2.17,4.28,4.28,0,0,0,2.8.4,4.52,4.52,0,0,0,2.26-2.72,1.26,1.26,0,1,0-1.62.75,1.26,1.26,0,0,0,1.62-.75A23.89,23.89,0,0,0,55,35.3a1.12,1.12,0,1,0-1.3.89A1.12,1.12,0,0,0,55,35.3a31.09,31.09,0,0,1,.6-3.37,1,1,0,1,0-1.22.63,1,1,0,0,0,1.22-.63,3.12,3.12,0,0,1,.93-1.87.83.83,0,1,0-.9-1.41,5.28,5.28,0,0,0-1.9,2.69,31.1,31.1,0,0,0-.94,3.55A18.38,18.38,0,0,1,51.88,38c-.33.78-.45,1-.7.91-.26.13-.3.13-.7-.09A4.09,4.09,0,0,1,49,37.48c-.42-.55-.9-1.28-1.33-1.94a12.15,12.15,0,0,0-1.42-1.77,3.51,3.51,0,0,0-1.89-1,3.21,3.21,0,0,0-2.16,1.23,13.79,13.79,0,0,0-1,2,4.61,4.61,0,0,1-2.32,2.35,4.31,4.31,0,0,1-2.94.15,5.3,5.3,0,0,1-4-3.78A4.63,4.63,0,0,1,32.13,32a1.79,1.79,0,0,1,.47-.8c.19-.2.21-.24.43-.24a1.74,1.74,0,0,1,1.22.79,2.18,2.18,0,0,1,.23,1.1c.06,1.54-1.25,3.59-3.44,5.08a5.91,5.91,0,0,1-3.88,1c-1.23-.18-2.06-.9-2.65-2.59-1.22-2.86,0-8.8.38-11.67A6.8,6.8,0,0,0,24.75,23c-2,.15-2,.88-2,1.73,0,.67,0,1.45,0,2.28,0,1.11-.12,2.28-.25,3.43a15.24,15.24,0,0,1-1.46,5,16.81,16.81,0,0,1-2.75,3.94c-1,1-1.68,1.44-2.4,1.23a1.52,1.52,0,0,1-1.14-.86,9.4,9.4,0,0,1-.07-2,14.59,14.59,0,0,1,.14-3.22,6.32,6.32,0,0,1,1-3.34c.06-.12.37-.18.93-.1.38,0,.63.12,1.12.53,1.15,1,2,2.07,1.93,3.25a1.18,1.18,0,0,0,2.37-.06Z"/><path class="cls-1" d="M60.37,38.32a7.75,7.75,0,0,0,7.06,0,1.28,1.28,0,1,0-1.77-.39,1.28,1.28,0,0,0,1.77.39,6.75,6.75,0,0,0,2.24-3.13,1.21,1.21,0,1,0-1.55.74,1.21,1.21,0,0,0,1.55-.74,7.21,7.21,0,0,0,.12-4,1.14,1.14,0,1,0-.8,1.41,1.14,1.14,0,0,0,.8-1.41,4.82,4.82,0,0,0-5.92-2.82,7.92,7.92,0,0,0-2.8,4.13,6.49,6.49,0,0,0,1.3,6.09,8.36,8.36,0,0,0,5.7,2.06,8,8,0,0,0,5.4-2.53,16,16,0,0,0,3.33-6.09,46,46,0,0,0,1.8-5.7A16.85,16.85,0,0,0,79,24.29a8.35,8.35,0,0,0,0-2.85,3.91,3.91,0,0,0-1.21-1.91,2.59,2.59,0,0,0-2.3.42,4.73,4.73,0,0,0-1,1.57c-.59,3.11.16,7.59.6,11A14.54,14.54,0,0,0,76.46,38a6,6,0,0,0,3.86,2.17,7.83,7.83,0,0,0,4.34-1,10,10,0,0,0,3-2.87,7,7,0,0,0,.54-2.07c.16-.61.28-1.22.37-1.6,0,.17,0,.23-.06.27a1.84,1.84,0,0,1-.79.41,2,2,0,0,1-.73-.27,2.45,2.45,0,0,1-.26-.31c0-.08-.08-.18-.1-.15a12.62,12.62,0,0,0-.28,3.05,7,7,0,0,0,2.22,4.16,6.73,6.73,0,0,0,4.36,1.42,6.58,6.58,0,0,0,4.15-2.32,7.73,7.73,0,0,0,1.55-4.4,1.15,1.15,0,1,0-1.17,1.13,1.15,1.15,0,0,0,1.17-1.13A5.8,5.8,0,0,0,97.15,31a1.07,1.07,0,1,0-.07,1.52A1.07,1.07,0,0,0,97.15,31,7,7,0,0,0,94,29.26a1,1,0,1,0,.68,1.23A1,1,0,0,0,94,29.26,7.61,7.61,0,0,0,87.11,31a.83.83,0,1,0,1.16,1.2,5.08,5.08,0,0,1,5.24-1.05,4.05,4.05,0,0,1,2.05,1.31,2.72,2.72,0,0,1,.75,2.07,4.36,4.36,0,0,1-1.13,2.85,3.11,3.11,0,0,1-2.45,1.31,3.15,3.15,0,0,1-2.53-.82,3.4,3.4,0,0,1-1.32-2.45,17.58,17.58,0,0,1,.17-2.83,2.16,2.16,0,0,0-.19-.81,2.25,2.25,0,0,0-.32-.41,2.07,2.07,0,0,0-.8-.3,1.9,1.9,0,0,0-1,.53,2.47,2.47,0,0,0-.21.45c-.12.64-.19,1.23-.31,1.84a4.76,4.76,0,0,1-.46,1.4,7.09,7.09,0,0,1-2.28,1.87,4.23,4.23,0,0,1-2.85.46,2.22,2.22,0,0,1-1.82-1.15A11.45,11.45,0,0,1,78,32.18c-.5-3.53-1.26-7.66-.8-10a1,1,0,0,1,.16-.47c0-.13-.28,0-.45,0-.26-.16-.15,0,0,.36a5.41,5.41,0,0,1,0,2,14.06,14.06,0,0,1-.28,1.88A42.52,42.52,0,0,1,75,31.44a12.87,12.87,0,0,1-3,5.22,4.91,4.91,0,0,1-3.88,1.68,5,5,0,0,1-4-1.41c-.9-.89-1.18-1.89-.61-3.7A4.82,4.82,0,0,1,65,30.48a1.89,1.89,0,0,1,1,.15c.94.16,1.37.42,1.59,1.26a3.87,3.87,0,0,1-.22,2.51A3.19,3.19,0,0,1,66,36.19c-1.07.76-2.52,1-4.65,0a1.18,1.18,0,1,0-1,2.14Z"/><path class="cls-1" d="M218,42.32a3.05,3.05,0,0,0,2.35-.26,1.07,1.07,0,1,0-1.46-.41,1.07,1.07,0,0,0,1.46.41,4.65,4.65,0,0,0,1.41-1.58,1,1,0,1,0-1.31.34,1,1,0,0,0,1.31-.34,6.16,6.16,0,0,0-.55-4.84,1.21,1.21,0,1,0-.45,1.65,1.21,1.21,0,0,0,.45-1.65,10.17,10.17,0,0,0-5.36-5,6.32,6.32,0,0,0-5.37,1.82,8.52,8.52,0,0,0-2.13,5.22,7.05,7.05,0,0,0,2,4.54,7.24,7.24,0,0,0,4.4,1.92,5.91,5.91,0,0,0,4.43-2.31,11.93,11.93,0,0,0,1.78-5.08c.38-1.95.76-4.33,1-6.35.11-.72.19-1.44.24-2.09a14.52,14.52,0,0,0,0-1.94,4.59,4.59,0,0,0-.13-.82,2.13,2.13,0,0,0-.82-1,5.69,5.69,0,0,0-3,4.08,19,19,0,0,0,2.29,12.62,6.1,6.1,0,0,0,4.92,2.43,9.55,9.55,0,0,0,5.08-2.08c2-1.5,3.77-3.54,4.18-5.71a5,5,0,0,0,.16-2A4.31,4.31,0,0,0,231.42,32a4.66,4.66,0,0,0-2.81,1,6.26,6.26,0,0,0-1,3.83,6,6,0,0,0,2.33,4.39,8.56,8.56,0,0,0,4.87,1.32,18.71,18.71,0,0,0,6.36-.77,10.48,10.48,0,0,0,3.64-2.14,9.68,9.68,0,0,0,2.38-3.91,6.24,6.24,0,0,0,.23-2.19,3.07,3.07,0,0,0-2.34-1.89,3.75,3.75,0,0,0-1.88.95,3.33,3.33,0,0,0-.81,1.77,5.93,5.93,0,0,0,3.44,3.07c.88.34,1.77.64,2.53.94a7.26,7.26,0,0,1,1.78,1.12c.49.33.63.42.77.73a3.23,3.23,0,0,1,.35,1.28,2.59,2.59,0,0,1-.54.46c-.28.3-.4.41-.55.46s-.3-.06-.31-.09c.11,1,.18.92.48.74a8.34,8.34,0,0,1,1.19-.6c2.19-.93,5.5-1.62,7.84-2.88a5.92,5.92,0,0,0,2.73-3,7.59,7.59,0,0,0,.1-2.58,4.07,4.07,0,0,0-.32-1.09,2.1,2.1,0,0,0-.49-.55,1.91,1.91,0,0,0-1.18-.09,1.05,1.05,0,1,0,1.41.49,1.05,1.05,0,0,0-1.41-.49,6.94,6.94,0,0,0-1.32,3.33,1.16,1.16,0,1,0,1.28-1,1.16,1.16,0,0,0-1.28,1,6.68,6.68,0,0,0,3.28,5.33,1,1,0,1,0-.32-1.37,1,1,0,0,0,.32,1.37,9.46,9.46,0,0,0,6.82.84.83.83,0,1,0-.38-1.62,6.79,6.79,0,0,1-5.39-.91,3.72,3.72,0,0,1-2-3.5,7.45,7.45,0,0,1,.4-2c-.68.51-1.18.47-1.32.4s-.19-.2-.18-.19a1,1,0,0,1,.15.42,4.69,4.69,0,0,1-.07,1.72c-.2.69-.72,1.16-1.79,1.77-2,1.14-5.23,1.83-7.62,2.87a10.35,10.35,0,0,0-1.44.81,2.85,2.85,0,0,0-1,1.11,2.48,2.48,0,0,0,1.92,1.74,3.79,3.79,0,0,0,1.83-.68,4,4,0,0,0,1.39-2,6.13,6.13,0,0,0-.53-2.44,4.49,4.49,0,0,0-1.41-1.56,10,10,0,0,0-2.25-1.42c-.88-.36-1.79-.67-2.57-1-1.2-.52-2.06-1-2.08-1.3,0,.36.06.36.23.18a.77.77,0,0,1,.47-.32c-.15,0-.17,0-.1.29a7.37,7.37,0,0,1-.18,1,6.48,6.48,0,0,1-1.69,3,7.34,7.34,0,0,1-2.87,1.59,15.75,15.75,0,0,1-5.65.64,5.33,5.33,0,0,1-3.49-1,2.79,2.79,0,0,1-1.23-2.63,3.28,3.28,0,0,1,.27-2.18,1.63,1.63,0,0,1,1.07-.23c.79,0,1.32.12,1.51.5-.1-.15-.17.19-.32.71-.2,1.62-1.55,3.06-3.35,4.44a6.27,6.27,0,0,1-3.8,1.48,2.82,2.82,0,0,1-2.79-1.49,15.34,15.34,0,0,1-1.87-10.66,9.25,9.25,0,0,1,.86-2.66c-1.47,0-1.66-.23-1.64-.21a.79.79,0,0,1,.12.33,8.38,8.38,0,0,1,.17,1.56c0,.56-.13,1.2-.24,1.91-.26,2-.62,4.35-1,6.29a8.74,8.74,0,0,1-1.65,4.1,2.81,2.81,0,0,1-2.68,1.19,3.71,3.71,0,0,1-2.63-1.3,3.39,3.39,0,0,1-1.09-2.72,4.71,4.71,0,0,1,1.38-3.4,2.67,2.67,0,0,1,2.8-1.07,6.58,6.58,0,0,1,3.86,3.53c.79,1.19,1.2,2.19,1,2.86a1.8,1.8,0,0,1-.74.54c-.28.13-.22.12-.29,0a1.18,1.18,0,0,0-1,2.14Z"/><path class="cls-1" d="M263.7,24.67c-.89-.55-1.27-.51-1.38-.47a1.14,1.14,0,1,0,1.4.8,1.14,1.14,0,0,0-1.4-.8l-.3.16a1.1,1.1,0,1,0,1.45.55,1.1,1.1,0,0,0-1.45-.55,3.29,3.29,0,0,0-.65.56,1,1,0,1,0,1.43,0,1,1,0,0,0-1.43,0,2.17,2.17,0,0,0-.37,1.2.92.92,0,1,0,.86-1,.92.92,0,0,0-.86,1,2.39,2.39,0,0,0,.7,1.18.83.83,0,1,0,1.17-1.19c-.15-.18-.08-.11,0-.1s-.05.3,0,.3,0,0,.09,0,0,0,0,0-.36.05-1.24-.48a1.18,1.18,0,1,0,2-1.25Z"/><path class="cls-1" d="M186.32,42.68c-1.62-.41-2.24-1.27-3.74-3.07a1.32,1.32,0,1,0-.13,1.86,1.32,1.32,0,0,0,.13-1.86,35.29,35.29,0,0,1-7.16-10.71,1.34,1.34,0,1,0-.76,1.74,1.34,1.34,0,0,0,.76-1.74,14.19,14.19,0,0,1-1.09-4.9,1.26,1.26,0,1,0-1.27,1.25A1.26,1.26,0,0,0,174.33,24a4.37,4.37,0,0,1,2.2-3.55,3.53,3.53,0,0,1,1.71-.51c.56,0,.81,0,1.07.26s.42.77.29,1.66c-.3,1.87-2.94,4.43-5.44,8a53.2,53.2,0,0,0-4.25,7.67,5.51,5.51,0,0,0-.59,3.24,2.7,2.7,0,0,0,1.79,1.15,1.18,1.18,0,1,0-1-1.32,1.18,1.18,0,0,0,1,1.32,6.88,6.88,0,0,0,1.61-.09,1.13,1.13,0,1,0-1.27-1,1.13,1.13,0,0,0,1.27,1,32.77,32.77,0,0,0,3.94-1,1,1,0,1,0-1.27-.7,1,1,0,0,0,1.27.7,92.4,92.4,0,0,1,9.6-2.76.83.83,0,0,0-.28-1.64,96.42,96.42,0,0,0-9.89,2.43,25.63,25.63,0,0,1-3.68.79,3.11,3.11,0,0,1-1,0c-.21,0-.05,0,0,0,.11.31.28-.16.72-1.14a49.93,49.93,0,0,1,4.06-7.25c2.33-3.35,5.15-6.18,5.79-8.95a5.1,5.1,0,0,0-1-4,4.66,4.66,0,0,0-2.83-.89,7.16,7.16,0,0,0-2.87.84,7.93,7.93,0,0,0-3.46,5.57,17.52,17.52,0,0,0,1.1,6,39,39,0,0,0,7.72,11.54c1.55,1.71,2.9,3,5.12,3.59a1.18,1.18,0,1,0,.57-2.3Z"/><path class="cls-1" d="M105.33,49a3.18,3.18,0,0,1,.47-.07,1.2,1.2,0,1,0,.91,1.43,1.2,1.2,0,0,0-.91-1.43c.11,0,.33.17.35.16a1.22,1.22,0,1,0-.08,1.73,1.22,1.22,0,0,0,.08-1.73s-.06-.14-.16-.51a1.26,1.26,0,1,0-.86,1.56A1.26,1.26,0,0,0,106,48.6a15.73,15.73,0,0,1-.35-3.21c-.27-3.75-.34-8.36.55-11.37a8.62,8.62,0,0,1,1.46-2.6c.67-1,1.14-1.53,1.73-1.56a2.45,2.45,0,0,1,.61.44,3.28,3.28,0,0,1,1,1.29,4.53,4.53,0,0,1,.3,2.28c-.06.5-.43.84-1.13,1.32-.42.3-.79.54-1.07.72h0a2.43,2.43,0,0,1,.72,0,1.16,1.16,0,1,0,.73,1.47,1.16,1.16,0,0,0-.73-1.47c.62,1.7.22,2.1.18,2.12l.21-.07c1.54-.22,5.2-.09,8.25-1.06A10.83,10.83,0,0,0,123,34a5.64,5.64,0,0,0,.71-1.47,6.87,6.87,0,0,0,.47-2,3.29,3.29,0,0,0-1.23-2,3.25,3.25,0,0,0-2.11-.13,4.87,4.87,0,0,0-1.71,1.08,8.65,8.65,0,0,0-1.86,4.9,7.3,7.3,0,0,0,.37,3,1.31,1.31,0,1,0,.68-1.72,1.31,1.31,0,0,0-.68,1.72,4.52,4.52,0,0,0,2.77,1.8,1.3,1.3,0,1,0-1-1.53,1.3,1.3,0,0,0,1,1.53,14.51,14.51,0,0,0,2.92.15A1.3,1.3,0,1,0,122,38.06a1.3,1.3,0,0,0,1.33,1.27A9.56,9.56,0,0,0,130,37.27a.83.83,0,0,0-1-1.3c-1.9,1.38-3.54,1.06-5.57.76a11.76,11.76,0,0,1-2.48-.12c-.63-.12-.83-.17-1-.49a4.2,4.2,0,0,1-.14-1.61,5.42,5.42,0,0,1,1-3.46,1.56,1.56,0,0,1,.73-.47c.26-.1.26-.12.32-.05s.08,0,.14.27c0,.08-.16.54-.35,1a2.69,2.69,0,0,1-.43.86,7.87,7.87,0,0,1-3.55,1.92c-2.59.9-6,.78-8,1.09a4.86,4.86,0,0,0-.78.26c-.06,0-.47.43.16,2.14a2.2,2.2,0,0,0,.77,0l.28-.11c.4-.19.88-.44,1.37-.73a5.66,5.66,0,0,0,2.42-2.87,8.43,8.43,0,0,0-.43-3.87,7.24,7.24,0,0,0-1.75-2.35,4.88,4.88,0,0,0-2.66-1.06,6.31,6.31,0,0,0-3.59,2.73,12.39,12.39,0,0,0-1.78,3.37c-1,3.52-1,8.52-.72,12.32a18,18,0,0,0,.59,3.75,4.33,4.33,0,0,0,.77,1.46,2.52,2.52,0,0,0,.94.54,2.4,2.4,0,0,0,1.15-.19A1.18,1.18,0,1,0,105.33,49Z"/><path class="cls-1" d="M131.65,33.37a4.68,4.68,0,0,1,3.74.83,1.32,1.32,0,1,0-.34-1.83,1.32,1.32,0,0,0,.34,1.83,1.64,1.64,0,0,1,.54.91,1.39,1.39,0,1,0,.77-1.81,1.39,1.39,0,0,0-.77,1.81,7.16,7.16,0,0,1,.27,1.34,1.42,1.42,0,1,0,1.19-1.61,1.42,1.42,0,0,0-1.19,1.61c.14.65.23,1.26.29,1.71,0,.15,0,.29,0,.39s0,0,0,0,0-.1,0-.19,1.91-.83,2.47-.27a1.33,1.33,0,1,0-.57,1.8,1.33,1.33,0,0,0,.57-1.8c.14.19.12-.89.26-2a1.38,1.38,0,1,0-1.52,1.22,1.38,1.38,0,0,0,1.52-1.22A11,11,0,0,1,142,30.43a1.11,1.11,0,1,0-1.57,0,1.11,1.11,0,0,0,1.57,0c1.53-1.74,3.29-2.78,5.41-2.37a.83.83,0,1,0,.35-1.63,8.25,8.25,0,0,0-7.35,2.46,14.9,14.9,0,0,0-3.88,6.77,18.27,18.27,0,0,0,0,3.16c.71,1.1,2.56.44,2.63.24s0-.2,0-.25,0-.16,0-.24,0-.37,0-.62c0-.54-.09-1.26-.2-2a10.72,10.72,0,0,0-.47-1.86,5.43,5.43,0,0,0-1.58-2,8.19,8.19,0,0,0-6-1,1.18,1.18,0,0,0,.74,2.25Z"/><path class="cls-1" d="M280,36.1a6.59,6.59,0,0,0,0-3.58,1.3,1.3,0,1,0-.71,1.7,1.3,1.3,0,0,0,.71-1.7,4.54,4.54,0,0,0-2.41-2.34,1.42,1.42,0,1,0,.92,1.79,1.42,1.42,0,0,0-.92-1.79,7.67,7.67,0,0,0-3.14-.19,1.5,1.5,0,1,0,1.76,1.18A1.5,1.5,0,0,0,274.44,30a6.61,6.61,0,0,0-2.83,1.48,9.84,9.84,0,0,0-1.86,2.88,6.46,6.46,0,0,0-.38,1.88,5.9,5.9,0,0,0,.08,2.82,5.71,5.71,0,0,0,3.06,2.32,1.38,1.38,0,1,0-.91-1.73,1.38,1.38,0,0,0,.91,1.73,9.48,9.48,0,0,0,4.39-.28,1.15,1.15,0,1,0-1.41-.82,1.15,1.15,0,0,0,1.41.82,7.42,7.42,0,0,0,3.47-2.38,1,1,0,1,0-1.4.14,1,1,0,0,0,1.4-.14,5.52,5.52,0,0,0,1-3.83.83.83,0,0,0-1.66.17,3,3,0,0,1-.91,2.41,4.5,4.5,0,0,1-2.54,1.41,5.79,5.79,0,0,1-3-.16,1.84,1.84,0,0,1-1.24-.91,5.36,5.36,0,0,1,.2-1.19,3,3,0,0,1,.28-1.16,5.56,5.56,0,0,1,1.18-1.88,2.35,2.35,0,0,1,1.35-.64,3.51,3.51,0,0,1,1.75,0,.81.81,0,0,1,.8.61,2.87,2.87,0,0,1,.14,2.06,1.18,1.18,0,0,0,2.31.52Z"/><path class="cls-1" d="M281.13,33.48a2.07,2.07,0,0,0-2,.6,1.17,1.17,0,1,0,1.38-.92,1.17,1.17,0,0,0-1.38.92,2.48,2.48,0,0,0,0,.36,1.16,1.16,0,1,0,1.18-1.14,1.16,1.16,0,0,0-1.18,1.14c0,.17,0,.42,0,.68a1.13,1.13,0,1,0,1.06-1.2,1.13,1.13,0,0,0-1.06,1.2c0,.52.13,1.24.24,1.94a82.59,82.59,0,0,1,.85,8.42,14.76,14.76,0,0,1-.13,3.36,5.15,5.15,0,0,1-.8,2.45c-.22.31-.42.46-.7.41,0,0-.19-.15-.47-.73a1.11,1.11,0,1,0-.54,1.47A1.11,1.11,0,0,0,278.1,51a6.64,6.64,0,0,1-.63-2.13,1,1,0,1,0-.91,1.15,1,1,0,0,0,.91-1.15,5.7,5.7,0,0,1,1-3.81.87.87,0,1,0-1.22.17.87.87,0,0,0,1.22-.17c1.11-1.24,2.84-1.88,5.85-5.1a.83.83,0,1,0-1.22-1.14c-2.86,3-4.49,3.57-6,5.13A8.42,8.42,0,0,0,275.4,49a10,10,0,0,0,.69,2.89A4.18,4.18,0,0,0,278,54a4.14,4.14,0,0,0,3.29-1,8.62,8.62,0,0,0,1.38-3.79,18.18,18.18,0,0,0,0-3.85,84.37,84.37,0,0,0-1.18-8.58c-.07-.67-.11-1.32-.12-1.81a4.2,4.2,0,0,1,0-.5s0,0,0,.06a2.18,2.18,0,0,1-2,.54,1.18,1.18,0,0,0,1.74-1.61Z"/><path class="cls-1" d="M288.26,36.09c.19-.24.08-.2.06-.17a1.15,1.15,0,1,0-1.24-1.06,1.15,1.15,0,0,0,1.24,1.06c-.07-.05-.3-.16-.22-.06a1.12,1.12,0,1,0,0-1.59,1.12,1.12,0,0,0,0,1.59,3.77,3.77,0,0,1,.75,1.6,1.06,1.06,0,1,0,.73-1.31,1.06,1.06,0,0,0-.73,1.31,19.17,19.17,0,0,1,.46,1.88c.13.62.26,1.21.35,1.73a6.42,6.42,0,0,0,.44,2,1.08,1.08,0,1,0,.26-1.5,1.08,1.08,0,0,0-.26,1.5,2.77,2.77,0,0,0,2.38-2.67c.59-2.19,1.63-4.76,3-5.32a.67.67,0,0,1,.71.16,2.43,2.43,0,0,1,.83,1A18.56,18.56,0,0,1,298.47,40a7.05,7.05,0,0,0,5.11,4,10.88,10.88,0,0,0,7-3,8.22,8.22,0,0,0,1.63-2.23,7.58,7.58,0,0,0,.8-3.44,4.22,4.22,0,0,0-1.23-2.12,3.56,3.56,0,0,0-2.08-.76,3.48,3.48,0,0,0-1.85,1.16,5.76,5.76,0,0,0-.84,1.75,9.2,9.2,0,0,0-.12,4.06,1.19,1.19,0,1,0,.89-1.43,1.19,1.19,0,0,0-.89,1.43,4.79,4.79,0,0,0,2.07,2.48,1.13,1.13,0,1,0-.41-1.55,1.13,1.13,0,0,0,.41,1.55,7.77,7.77,0,0,0,3,.82,1.08,1.08,0,1,0-1-1.17,1.08,1.08,0,0,0,1,1.17,10.44,10.44,0,0,0,6.55-1.3.83.83,0,0,0-.87-1.42c-1.79,1-3.55.87-5.46.58a4.58,4.58,0,0,1-2-.64,1.58,1.58,0,0,1-.91-1.14,5.81,5.81,0,0,1,0-2.85,2.7,2.7,0,0,1,.42-1c.18-.27.22-.33.42-.37,0,0,.16,0,.44.26a1.37,1.37,0,0,1,.59.84,5.06,5.06,0,0,1-.62,2.27,5.37,5.37,0,0,1-1.19,1.73,8.1,8.1,0,0,1-5.5,2.4,4,4,0,0,1-3.09-2.82A20.44,20.44,0,0,0,298.73,35a5.13,5.13,0,0,0-1.62-1.55,3.33,3.33,0,0,0-2.35-.16c-2.12,1.1-3.49,4.19-4.17,6.55a15.23,15.23,0,0,1-.52,1.94c1.88.27,1.85-.3,1.76-1.11-.14-.63-.29-1.24-.44-1.82s-.3-1.36-.49-2a6.9,6.9,0,0,0-1.15-2.55,2.57,2.57,0,0,0-1.59-.7,3.07,3.07,0,0,0-1.64.88,1.18,1.18,0,1,0,1.75,1.59Z"/><path class="cls-1" d="M321.27,35.47s-.28.25-.3.29a1.18,1.18,0,1,0-1.5-.73,1.18,1.18,0,0,0,1.5.73s-.05,0,.18,0a1.18,1.18,0,1,0-.83-1.44,1.18,1.18,0,0,0,.83,1.44,5.4,5.4,0,0,1,1.78,1,1.17,1.17,0,1,0-.24-1.64,1.17,1.17,0,0,0,.24,1.64,3,3,0,0,1,1.32,1.53,13.07,13.07,0,0,1,.23,2,11.89,11.89,0,0,0,.2,1.46,1.73,1.73,0,0,0,2,.52,2,2,0,0,0,.29-.46,4.76,4.76,0,0,0,.15-.59,1.12,1.12,0,1,0-1.36.81,1.12,1.12,0,0,0,1.36-.81c.08-.39.16-.92.26-1.5a1.05,1.05,0,1,0-1.25.81,1.05,1.05,0,0,0,1.25-.81A8.39,8.39,0,0,1,331,34.4a.94.94,0,1,0-1.32-.22.94.94,0,0,0,1.32.22,11.8,11.8,0,0,1,7.52-2.33.83.83,0,0,0,.06-1.67,14.38,14.38,0,0,0-8.68,2.47,11.24,11.24,0,0,0-4.56,6.45c-.14.56-.27,1-.37,1.36-.05.15-.08.21-.1.21a1.62,1.62,0,0,1,.18-.28,2.15,2.15,0,0,1,1.46-.12c.42.55.38.15.32-.4a14.53,14.53,0,0,0-.35-2.53,6.18,6.18,0,0,0-2.19-2.69,8.63,8.63,0,0,0-2.54-1.34,3.28,3.28,0,0,0-1.55,0A2.54,2.54,0,0,0,319,34.95a1.18,1.18,0,0,0,2.31.53Z"/></svg>