<svg id="Layer_1" data-name="Layer 1" xmlns="http://www.w3.org/2000/svg" viewBox="0 0 175 99"><defs><style>.cls-1{fill:#333;}</style></defs><title>Untitled-1</title><path class="cls-1" d="M23.08,33.24a7.57,7.57,0,0,0-2.28,5.53,2.5,2.5,0,1,0,2.39-2.6,2.5,2.5,0,0,0-2.39,2.6,28.59,28.59,0,0,0,1.14,6.44,2.66,2.66,0,1,0,1.8-3.3,2.66,2.66,0,0,0-1.8,3.3c1.24,4.6,3.13,10,4,15.74a3,3,0,1,0,2.44-3.44,3,3,0,0,0-2.44,3.44A66.83,66.83,0,0,1,26.12,73c0,2.85-.14,4.31-.64,5.12-.23.53-.33.68-1.05.79-.84.29-1.84,0-3.22-1.16-2.94-2.6-3.67-6-3-10.11a16.46,16.46,0,0,1,6-10.51,38.61,38.61,0,0,1,9.47-6.5,19.2,19.2,0,0,1,4.73-2.11c1-.23,1.46-.28,1.76-.12-.91-.82-1.19.88-1,3.43a17.63,17.63,0,0,0,2.17,5.79,15.85,15.85,0,0,0,5.09,4.62,13.46,13.46,0,0,0,9.87-1.39,39.54,39.54,0,0,0,5.88-4.33A24.53,24.53,0,0,0,66.12,52,39.94,39.94,0,0,1,69,48.41a8.08,8.08,0,0,1,8.93-1.56,3.41,3.41,0,0,1,.51.91,5.77,5.77,0,0,1,.48,2.09,2.4,2.4,0,1,0,2.53-2.26,2.4,2.4,0,0,0-2.53,2.26c4.13-1.35,3.45-2.27,2.35-3.22a13.63,13.63,0,0,0-6.21-2.15A10.74,10.74,0,0,0,67,50.75a12.69,12.69,0,0,0-1,5.49,13,13,0,0,0,7.27,7.88A15.06,15.06,0,0,0,83.07,63a10.54,10.54,0,0,0,3.42-3.86c.86-1.41,1.67-3.11,2.37-4.43a3.86,3.86,0,0,1,.87-1.17c.08-.05-.09.1-.18.19a4.58,4.58,0,0,1-.93.1c-.49-.12.23,1.71,1.45,3.54a14.18,14.18,0,0,0,6.47,3.93c5.26.12,9.62-3.32,12-6,1-1.24,1.62-2.26,2.42-3.07a6,6,0,0,1,1.43-1.72c-.25.25.17.41.74.77a11.12,11.12,0,0,0,1.5,2.64A14.09,14.09,0,0,0,120.76,57a9.65,9.65,0,0,0,6.46-3,36.79,36.79,0,0,0,3.88-5.33,34,34,0,0,1,2.9-4.12c.56-.78.65-1,.94-1.07a2.11,2.11,0,1,0-2.77-1.1,2.11,2.11,0,0,0,2.77,1.1,15.08,15.08,0,0,1,4.11,3.34,2.76,2.76,0,1,0-.24-3.89,2.76,2.76,0,0,0,.24,3.89c3.71,3.93,7.87,9,13.32,10.4a3.16,3.16,0,1,0-2.52-3.7,3.16,3.16,0,0,0,2.52,3.7,14.18,14.18,0,0,0,10-4.73,1.64,1.64,0,0,0-2.11-2.52c-3.17,2-5,2-6.75,1-3.31-.25-6.5-4.13-10.72-8.19-2.77-2.15-6.26-3.74-9-3.36a7.25,7.25,0,0,0-3.21,2.32,35.08,35.08,0,0,0-3.4,4.34,29,29,0,0,1-3.52,4.44c-1.13,1.09-1.66,1.46-2.56,1.31a7,7,0,0,1-3-1.52,15.85,15.85,0,0,0-2.7-2.93,8.05,8.05,0,0,0-4.35-.66,8.64,8.64,0,0,0-3.3,2.82c-.88.85-1.62,2-2.37,2.89-2.23,2.19-5.1,4.54-8.19,4a7.3,7.3,0,0,1-3.61-2.13c-.84-1.06-1.71-2.83-2.74-3.92A3.6,3.6,0,0,0,88,50a4.36,4.36,0,0,0-1.17,1A10.61,10.61,0,0,0,85.73,53c-.78,1.27-1.63,2.84-2.49,4.08A5,5,0,0,1,81,59.23a8.8,8.8,0,0,1-6.18.22A6,6,0,0,1,71,55.32a6.09,6.09,0,0,1,.63-2.72c.76-2.22,2-3.48,3.67-3.6a7.4,7.4,0,0,1,3.35,1.21,10.16,10.16,0,0,0,1.71,1.94c3.41-3,3-4.76,2.37-6.29a8.59,8.59,0,0,0-2.49-3,13.36,13.36,0,0,0-4.53-1.05A13.77,13.77,0,0,0,66,45.31a46.15,46.15,0,0,0-3.39,4,19.07,19.07,0,0,1-3.44,3.67,34.85,34.85,0,0,1-5.27,3.42c-2.12,1.05-3.77,1.51-5.3.84a8.52,8.52,0,0,1-2.56-2.66A9.65,9.65,0,0,1,44.53,51c-.33-1.87-.38-4.56-2-6.53A7.92,7.92,0,0,0,37.34,44a25.19,25.19,0,0,0-5.77,2.56,44.3,44.3,0,0,0-10.28,7.09,23.07,23.07,0,0,0-8,13.13,17.38,17.38,0,0,0,4.24,15,11.51,11.51,0,0,0,7.81,3,9.38,9.38,0,0,0,5.5-3.61,19,19,0,0,0,1.32-7.91,75.42,75.42,0,0,0-.36-13.16c-1.18-6.32-3.39-12-4.78-16.37a24.05,24.05,0,0,1-1.25-5.15c-.13-1.26-.22-1.42.21-1.68a2.33,2.33,0,1,0-2.92-3.64Z"/><path class="cls-1" d="M21.1,17.91a6,6,0,0,0,.4,2,2.5,2.5,0,1,0,.87-3.43,2.5,2.5,0,0,0-.87,3.43,5.09,5.09,0,0,0,2.44,1.64,2.68,2.68,0,1,0-2.55-2.8,2.68,2.68,0,0,0,2.55,2.8c1,.08.94.07.86.27a3,3,0,1,0-2.09-3.72,3,3,0,0,0,2.09,3.72,1.16,1.16,0,0,1,1.36-.66,1.64,1.64,0,0,0,2.28-2.37,11,11,0,0,0-2-2.79c-1.48-.19-2.54.15-2.23.2a6.16,6.16,0,0,1,1.61,1.15c0,.23,0,.43-.06.07a2.33,2.33,0,0,0-4.64.48Z"/></svg>